<svg width="295" height="128" viewBox="0 0 295 128" fill="none" xmlns="http://www.w3.org/2000/svg">
<path fill-rule="evenodd" clip-rule="evenodd" d="M55.491 1.26939C47.573 3.27639 40.741 6.22639 34.651 10.2694C28.587 14.2934 17.718 25.4804 14.542 30.9654C12.745 34.0684 13.058 33.9144 18.542 29.0084C26.481 21.9044 38.439 16.2004 50.72 13.6574C58.938 11.9554 62.955 11.7144 75.991 12.1374C97.701 12.8434 108.68 16.1944 120.883 25.8404C128.28 31.6874 125.884 27.4884 116.594 18.3234C108.379 10.2194 96.3 3.50539 85.942 1.28439C77.982 -0.421611 62.193 -0.42961 55.491 1.26939ZM48.491 20.9454C33.407 25.1964 19.188 34.0254 13.026 42.9694C4.46101 55.4014 10.697 66.1934 29.943 72.2454C40.661 75.6164 49.778 76.8204 71.706 77.7614C88.962 78.5014 91.409 78.8274 95.706 80.9584C100.708 83.4384 101.782 85.5454 100.548 90.4594C99.796 93.4564 93.216 99.9684 86.241 104.616C83.353 106.54 80.991 108.269 80.991 108.458C80.991 109.004 90.533 105.096 96.261 102.203C104.081 98.2544 110.007 94.0074 114.666 89.0134L118.841 84.5374L120.469 88.4344C124.492 98.0644 132.254 101.475 147.956 100.515C163.925 99.5384 167.991 97.5594 167.991 90.7604C167.991 86.1894 167.478 86.0524 159.274 88.4374C155.676 89.4834 151.309 89.9054 146.75 89.6484C140.593 89.3004 139.463 88.9194 137.37 86.4864C135.739 84.5894 134.991 82.4864 134.991 79.7974V75.8754L153.728 75.6034L172.466 75.3314L173.703 72.7494C174.383 71.3294 175.063 67.2794 175.215 63.7494C175.464 57.9534 175.709 57.3004 177.741 57.0114C180.65 56.5984 180.639 57.6624 177.553 74.9084C174.132 94.0274 175.39 98.2464 185.31 100.917C189.582 102.067 197.961 101.453 201.13 99.7574C202.941 98.7884 205.437 91.6694 204.72 89.5194C204.491 88.8314 202.163 88.3504 199.031 88.3434C191.319 88.3254 191.098 87.6194 193.824 71.7034C195.069 64.4324 196.318 58.1114 196.599 57.6574C196.879 57.2034 201.357 56.8314 206.55 56.8314C214.876 56.8314 215.99 57.0384 215.987 58.5814C215.984 59.5444 214.858 66.6184 213.483 74.3014C210.84 89.0724 210.956 93.2464 214.124 97.2724C218.55 102.9 236.895 102.843 239.043 97.1944L239.983 94.7234L243.29 97.2454C250.383 102.656 263.484 102.7 271.381 97.3414L274.872 94.9724L275.181 97.6524C275.46 100.062 275.942 100.36 279.991 100.625C282.572 100.794 285.219 100.367 286.198 99.6254C287.447 98.6784 288.863 93.0034 291.474 78.4774C295.228 57.5914 295.274 53.7324 291.823 49.3454C287.729 44.1404 274.048 42.4294 260.735 45.4574C251.864 47.4754 247.991 50.7914 247.991 56.3684C247.991 59.8574 248.141 60.0294 250.741 59.5214C252.253 59.2264 255.966 58.0644 258.991 56.9404C265.41 54.5554 273.774 54.2214 276.535 56.2404C277.939 57.2664 278.433 58.7704 278.354 61.7794C278.294 64.0514 278.017 66.1394 277.737 66.4184C277.457 66.6984 272.434 67.3104 266.573 67.7794C258.29 68.4424 254.724 69.2164 250.558 71.2554C244.115 74.4074 243.448 75.1524 240.447 82.5554C238.163 88.1914 238.004 88.3394 233.898 88.6464C231.211 88.8474 229.388 88.4854 228.855 87.6464C227.541 85.5724 228.02 79.1904 230.343 67.8314L232.491 57.3314L239.491 56.8314L246.491 56.3314L247.371 52.1404C248.732 45.6534 248.009 44.8314 240.943 44.8314H234.832L235.533 38.2854L236.234 31.7384L228.862 32.0354L221.491 32.3314L220.066 38.5814L218.641 44.8314H208.755H198.868L199.565 40.1854C200.828 31.7664 201.3 32.3314 193.002 32.3314H185.512L184.165 38.5814C182.839 44.7324 182.765 44.8314 179.476 44.8314C176.235 44.8314 173.636 46.4614 172.726 49.0634C172.391 50.0234 171.823 49.9364 170.387 48.7024C164.994 44.0674 157.185 42.4284 147.745 43.9484C136.261 45.7974 127.371 52.5244 123.289 62.4524C121.636 66.4714 119.991 68.1814 119.991 65.8794C119.991 65.3564 118.335 63.3194 116.311 61.3534C110.096 55.3174 99.904 53.0124 67.491 50.3094C47.318 48.6274 41.527 47.6774 36.919 45.2944C27.663 40.5074 33.086 31.4164 50.357 22.7694C59.111 18.3864 58.767 18.0504 48.491 20.9454ZM144.295 55.7874C140.943 57.8314 138.655 60.8044 137.528 64.5814C136.859 66.8224 136.9 66.8314 148.307 66.8314C158.962 66.8314 159.795 66.6904 160.287 64.8074C161.075 61.7944 159.17 55.9974 157.013 54.8434C153.977 53.2184 147.751 53.6804 144.295 55.7874ZM260.32 78.2894C252.06 81.8824 253.737 90.8314 262.67 90.8314C267.286 90.8314 274.982 85.9924 275.005 83.0754C275.012 82.1164 275.29 80.3194 275.621 79.0814C276.201 76.9174 275.98 76.8334 269.858 76.8704C266.356 76.8924 262.064 77.5304 260.32 78.2894ZM7.00057e-06 90.6854C0.026007 92.4224 6.28801 101.945 10.446 106.57C25.242 123.026 50.719 131.122 72.991 126.444C88.083 123.274 104.68 112.411 113.078 100.205C117.097 94.3634 116.738 94.0044 111.491 98.6224C105.021 104.317 94.587 109.473 84.365 112.026C71.875 115.146 48.229 115.125 36.491 111.983C24.415 108.752 12.911 102.681 5.94201 95.8634C2.66901 92.6604 -0.004993 90.3304 7.00057e-06 90.6854Z" fill="white"/>
</svg>
